<svg
  xmlns="http://www.w3.org/2000/svg"
  viewBox="0 0 240 148"
  fill="none"
>
  <ellipse
    cx="74"
    cy="18"
    rx="8.5"
    ry="9.5"
    transform="rotate(-15 74 18)"
    fill="#A06040"
  />
  <path
    d="M77 26C80 32 84 40 86 50"
    stroke="#A06040"
    stroke-width="7"
    stroke-linecap="round"
  />
  <path
    d="M86 50C84 62 80 72 76 82"
    stroke="#A06040"
    stroke-width="8"
    stroke-linecap="round"
  />
  <path
    d="M82 54C72 44 58 30 44 16"
    stroke="#A06040"
    stroke-width="5"
    stroke-linecap="round"
  />
  <circle cx="43" cy="15" r="4" fill="#A06040" />
  <path
    d="M88 46C94 36 102 26 110 16"
    stroke="#A06040"
    stroke-width="4.5"
    stroke-linecap="round"
  />
  <circle cx="111" cy="15" r="3.5" fill="#A06040" />
  <path
    d="M76 82C66 90 48 108 32 134C40 136 52 136 62 134C67 120 72 106 78 96C82 106 86 120 90 134C100 136 110 136 116 134C104 112 94 94 88 82Z"
    fill="#A06040"
  />
  <path
    d="M78 96C78 112 78 122 78 134"
    stroke="#8A4A28"
    stroke-width="1.5"
    opacity="0.45"
  />
  <ellipse
    cx="166"
    cy="18"
    rx="8.5"
    ry="9.5"
    transform="rotate(15 166 18)"
    fill="#7A3A1E"
  />
  <path
    d="M163 26C160 32 156 40 154 50"
    stroke="#7A3A1E"
    stroke-width="7"
    stroke-linecap="round"
  />
  <path
    d="M154 50C156 62 160 72 164 82"
    stroke="#7A3A1E"
    stroke-width="8"
    stroke-linecap="round"
  />
  <path
    d="M158 54C168 44 182 30 196 16"
    stroke="#7A3A1E"
    stroke-width="5"
    stroke-linecap="round"
  />
  <circle cx="197" cy="15" r="4" fill="#7A3A1E" />
  <path
    d="M152 46C146 36 138 26 130 16"
    stroke="#7A3A1E"
    stroke-width="4.5"
    stroke-linecap="round"
  />
  <circle cx="129" cy="15" r="3.5" fill="#7A3A1E" />
  <path
    d="M164 82C174 90 192 108 208 134C200 136 188 136 178 134C173 120 168 106 162 96C158 106 154 120 150 134C140 136 130 136 124 134C136 112 146 94 152 82Z"
    fill="#7A3A1E"
  />
  <path
    d="M162 96C162 112 162 122 162 134"
    stroke="#6A2A0E"
    stroke-width="1.5"
    opacity="0.45"
  />
  <ellipse cx="120" cy="75" rx="16" ry="38" fill="#FFD7AA" opacity="0.15" />
</svg>
